<?xml version="1.0" encoding="UTF-8"?>
<svg id="Layer_1" xmlns="http://www.w3.org/2000/svg" version="1.1" viewBox="0 0 128 128">
  <!-- Generator: Adobe Illustrator 29.0.1, SVG Export Plug-In . SVG Version: 2.1.0 Build 192)  -->
  <defs>
    <style>
      .st0 {
        fill: #fff;
      }
    </style>
  </defs>
  <path class="st0" d="M78.4,64c4.9-2.6,6.8-6.9,6.8-11.9,0-8.2-5.1-14.6-20.4-14.6h-18.4v52.9h12.1v-14.5h14.5v14.5h12.1v-14.6c0-5-1.9-9.3-6.8-11.9h0Z"/>
  <path class="st0" d="M110.7,44.5c-2.5-6-6.1-11.3-10.7-15.9-4.6-4.6-9.9-8.2-15.9-10.7-5.8-2.4-11.9-3.8-18.2-3.9v10.3c10.1.3,19.6,4.4,26.9,11.6,7.5,7.5,11.6,17.5,11.6,28.1s-4.1,20.6-11.6,28.1c-7.5,7.5-17.5,11.6-28.1,11.6s-20.6-4.1-28.1-11.6c-7.5-7.5-11.6-17.5-11.6-28.1h10.1l-15.3-26.5-15.3,26.5h10.1c0,6.7,1.3,13.3,3.9,19.5,2.5,6,6.1,11.3,10.7,15.9,4.6,4.6,9.9,8.2,15.9,10.7,6.2,2.6,12.7,3.9,19.5,3.9s13.3-1.3,19.5-3.9c6-2.5,11.3-6.1,15.9-10.7,4.6-4.6,8.2-9.9,10.7-15.9,2.6-6.2,3.9-12.7,3.9-19.5s-1.3-13.3-3.9-19.5Z"/>
</svg>